<svg viewBox="0 0 1087 400" xmlns="http://www.w3.org/2000/svg"><g><g><g><g><g><line x1="40" y1="377" x2="35" y2="377" style="visibility: inherit;" fill="rgb(0, 0, 0)" stroke="rgb(204, 204, 204)" stroke-width="1px"></line><line x1="40" y1="329.875" x2="35" y2="329.875" style="visibility: inherit;" fill="rgb(0, 0, 0)" stroke="rgb(204, 204, 204)" stroke-width="1px"></line><line x1="40" y1="282.75" x2="35" y2="282.75" style="visibility: inherit;" fill="rgb(0, 0, 0)" stroke="rgb(204, 204, 204)" stroke-width="1px"></line><line x1="40" y1="235.625" x2="35" y2="235.625" style="visibility: inherit;" fill="rgb(0, 0, 0)" stroke="rgb(204, 204, 204)" stroke-width="1px"></line><line x1="40" y1="188.5" x2="35" y2="188.5" style="visibility: inherit;" fill="rgb(0, 0, 0)" stroke="rgb(204, 204, 204)" stroke-width="1px"></line><line x1="40" y1="141.375" x2="35" y2="141.375" style="visibility: inherit;" fill="rgb(0, 0, 0)" stroke="rgb(204, 204, 204)" stroke-width="1px"></line><line x1="40" y1="94.25" x2="35" y2="94.25" style="visibility: inherit;" fill="rgb(0, 0, 0)" stroke="rgb(204, 204, 204)" stroke-width="1px"></line><line x1="40" y1="47.125" x2="35" y2="47.125" style="visibility: inherit;" fill="rgb(0, 0, 0)" stroke="rgb(204, 204, 204)" stroke-width="1px"></line><line x1="40" y1="0" x2="35" y2="0" style="visibility: inherit;" fill="rgb(0, 0, 0)" stroke="rgb(204, 204, 204)" stroke-width="1px"></line></g><g transform="translate(30, 0)"><text x="0" y="377" dx="0em" dy="0.3em" style="text-anchor: end; visibility: hidden; font-family: Roboto, sans-serif; font-size: 12px; font-weight: 200;" fill="rgb(33, 33, 33)" stroke="none" stroke-width="1px">4</text><text x="0" y="329.875" dx="0em" dy="0.3em" style="text-anchor: end; visibility: inherit; font-family: Roboto, sans-serif; font-size: 12px; font-weight: 200;" fill="rgb(33, 33, 33)" stroke="none" stroke-width="1px">4.5</text><text x="0" y="282.75" dx="0em" dy="0.3em" style="text-anchor: end; visibility: inherit; font-family: Roboto, sans-serif; font-size: 12px; font-weight: 200;" fill="rgb(33, 33, 33)" stroke="none" stroke-width="1px">5</text><text x="0" y="235.625" dx="0em" dy="0.3em" style="text-anchor: end; visibility: inherit; font-family: Roboto, sans-serif; font-size: 12px; font-weight: 200;" fill="rgb(33, 33, 33)" stroke="none" stroke-width="1px">5.5</text><text x="0" y="188.5" dx="0em" dy="0.3em" style="text-anchor: end; visibility: inherit; font-family: Roboto, sans-serif; font-size: 12px; font-weight: 200;" fill="rgb(33, 33, 33)" stroke="none" stroke-width="1px">6</text><text x="0" y="141.375" dx="0em" dy="0.3em" style="text-anchor: end; visibility: inherit; font-family: Roboto, sans-serif; font-size: 12px; font-weight: 200;" fill="rgb(33, 33, 33)" stroke="none" stroke-width="1px">6.5</text><text x="0" y="94.25" dx="0em" dy="0.3em" style="text-anchor: end; visibility: inherit; font-family: Roboto, sans-serif; font-size: 12px; font-weight: 200;" fill="rgb(33, 33, 33)" stroke="none" stroke-width="1px">7</text><text x="0" y="47.125" dx="0em" dy="0.3em" style="text-anchor: end; visibility: inherit; font-family: Roboto, sans-serif; font-size: 12px; font-weight: 200;" fill="rgb(33, 33, 33)" stroke="none" stroke-width="1px">7.5</text><text x="0" y="0" dx="0em" dy="0.3em" style="text-anchor: end; visibility: hidden; font-family: Roboto, sans-serif; font-size: 12px; font-weight: 200;" fill="rgb(33, 33, 33)" stroke="none" stroke-width="1px">8</text></g><line x1="40" y1="0" x2="40" y2="377" fill="rgb(0, 0, 0)" stroke="rgb(204, 204, 204)" stroke-width="1px"></line></g></g><g transform="translate(40, 0)" clip-path="url(#clip_0)"><clipPath id="clip_0"><rect width="1047" height="377"></rect></clipPath><g><g><g><line x1="0" y1="0" x2="0" y2="377" fill="rgb(0, 0, 0)" stroke="rgb(66, 66, 66)" stroke-width="1px" opacity="0.25"></line><line x1="116.33333333333333" y1="0" x2="116.33333333333333" y2="377" fill="rgb(0, 0, 0)" stroke="rgb(66, 66, 66)" stroke-width="1px" opacity="0.25"></line><line x1="232.66666666666666" y1="0" x2="232.66666666666666" y2="377" fill="rgb(0, 0, 0)" stroke="rgb(66, 66, 66)" stroke-width="1px" opacity="0.25"></line><line x1="349" y1="0" x2="349" y2="377" fill="rgb(0, 0, 0)" stroke="rgb(66, 66, 66)" stroke-width="1px" opacity="0.25"></line><line x1="465.3333333333333" y1="0" x2="465.3333333333333" y2="377" fill="rgb(0, 0, 0)" stroke="rgb(66, 66, 66)" stroke-width="1px" opacity="0.25"></line><line x1="581.6666666666667" y1="0" x2="581.6666666666667" y2="377" fill="rgb(0, 0, 0)" stroke="rgb(66, 66, 66)" stroke-width="1px" opacity="0.25"></line><line x1="698" y1="0" x2="698" y2="377" fill="rgb(0, 0, 0)" stroke="rgb(66, 66, 66)" stroke-width="1px" opacity="0.25"></line><line x1="814.3333333333334" y1="0" x2="814.3333333333334" y2="377" fill="rgb(0, 0, 0)" stroke="rgb(66, 66, 66)" stroke-width="1px" opacity="0.25"></line><line x1="930.6666666666666" y1="0" x2="930.6666666666666" y2="377" fill="rgb(0, 0, 0)" stroke="rgb(66, 66, 66)" stroke-width="1px" opacity="0.25"></line><line x1="1047" y1="0" x2="1047" y2="377" fill="rgb(0, 0, 0)" stroke="rgb(66, 66, 66)" stroke-width="1px" opacity="0.25"></line></g><g><line x1="0" y1="377" x2="1047" y2="377" fill="rgb(0, 0, 0)" stroke="rgb(66, 66, 66)" stroke-width="1px" opacity="0.25"></line><line x1="0" y1="329.875" x2="1047" y2="329.875" fill="rgb(0, 0, 0)" stroke="rgb(66, 66, 66)" stroke-width="1px" opacity="0.25"></line><line x1="0" y1="282.75" x2="1047" y2="282.75" fill="rgb(0, 0, 0)" stroke="rgb(66, 66, 66)" stroke-width="1px" opacity="0.25"></line><line x1="0" y1="235.625" x2="1047" y2="235.625" fill="rgb(0, 0, 0)" stroke="rgb(66, 66, 66)" stroke-width="1px" opacity="0.25"></line><line x1="0" y1="188.5" x2="1047" y2="188.5" fill="rgb(0, 0, 0)" stroke="rgb(66, 66, 66)" stroke-width="1px" opacity="0.25"></line><line x1="0" y1="141.375" x2="1047" y2="141.375" fill="rgb(0, 0, 0)" stroke="rgb(66, 66, 66)" stroke-width="1px" opacity="0.25"></line><line x1="0" y1="94.25" x2="1047" y2="94.25" fill="rgb(0, 0, 0)" stroke="rgb(66, 66, 66)" stroke-width="1px" opacity="0.25"></line><line x1="0" y1="47.125" x2="1047" y2="47.125" fill="rgb(0, 0, 0)" stroke="rgb(66, 66, 66)" stroke-width="1px" opacity="0.25"></line><line x1="0" y1="0" x2="1047" y2="0" fill="rgb(0, 0, 0)" stroke="rgb(66, 66, 66)" stroke-width="1px" opacity="0.25"></line></g></g></g><g><g><line x1="0" y1="754" x2="1047" y2="754" fill="rgb(0, 0, 0)" stroke="rgb(153, 153, 153)" stroke-width="1.5px"></line></g></g><g><g><line x1="116.33333333333333" y1="0" x2="116.33333333333333" y2="377" fill="rgb(0, 0, 0)" stroke="rgb(153, 153, 153)" stroke-width="1.5px"></line></g></g><g><g><g><g><g><path stroke="rgb(255, 112, 67)" stroke-width="2px" d="M117.49666666666667,12.302531123161316L119.82333333333334,-29.913504227995872L155.07233333333332,-6.029539787196409L155.77033333333335,1.472000505512397L157.16633333333334,6.253164389047973L157.399,9.550356784885276L158.56233333333333,12.53786959853489L159.02766666666665,14.612612430895636L159.26033333333334,15.945220676237808L160.191,17.50266788460442L160.4236666666667,18.52060231015313L162.0523333333333,19.8814612892835L163.91366666666667,21.78131021671071L164.14633333333333,23.101832089528635L164.379,23.94883051975031L165.30966666666666,24.90536999383417L167.75266666666664,34.438300083199756L169.14866666666668,41.19553295979067L170.31199999999998,45.74559984332613L171.01,48.97697588042538L173.80200000000002,52.87979858062585L175.198,55.712203842056326L176.36133333333333,57.96774011948909L177.0593333333333,59.57237700283074L177.99,60.85992729460924L178.80433333333335,68.21288673756005L179.26966666666667,72.79696965621409L180.433,75.18067550901488L183.6903333333333,78.0536778941388L184.85366666666667,80.638170681872L185.08633333333333,82.36293532996068L186.24966666666668,84.46884953110624L187.18033333333335,86.27358843761216L187.41299999999998,87.44541674779377L187.87833333333333,88.52277191833566L189.73966666666666,90.46252308103975L189.97233333333332,91.75492559560261L191.252,102.05141693763811L191.48466666666667,105.23567770965627L191.71733333333333,107.64401068119851L192.41533333333334,108.83963683741477L194.50933333333333,109.6658797949385L196.37066666666666,110.32463883696978L200.09333333333333,109.99771384798882L201.024,109.77655318023804L202.42,109.83009602214129L203.35066666666665,109.93269062987109L203.69966666666667,114.18998742670497L206.49166666666665,115.47926893574406L206.72433333333333,116.42636751379013L210.447,118.63200397041706L213.47166666666666,120.89069873539961L213.70433333333332,122.34859885244579L214.16966666666664,123.45861876886492L215.5656666666667,124.70830019045708L217.54333333333335,131.07663779097106L218.00866666666667,134.87497165582963L218.24133333333333,137.2720972703838L218.93933333333334,138.75082035106084L220.33533333333332,139.4036192610363L222.42933333333332,139.71030448165536L223.12733333333333,139.93152750901578L223.36,140.08241785390496L225.45399999999998,140.2615415383775L225.68666666666667,140.32707596596475L229.06033333333332,141.517376713612L229.52566666666667,144.0104655102839L229.991,145.3956718251675L233.24833333333333,146.52889508042153L234.41166666666666,147.196766627034L234.877,147.56065517199067L235.57500000000002,147.96925433595197L237.43633333333332,148.69897742342476L238.8323333333333,149.40642673535058L239.2976666666667,150.08091711260624L239.99566666666666,150.74645413910005L241.27533333333335,154.18176363679564L242.43866666666665,155.01756343110074L242.67133333333334,155.8858950666408L244.76533333333333,157.66728070567973L245.23066666666668,158.77733280176483L246.16133333333332,159.54545408436394L246.394,160.0737576839253L247.55733333333336,160.65848571997432L248.488,161.25725802744353L248.72066666666666,161.67850528338505L249.884,162.18424059259266L250.34933333333333,162.74160352532485L250.58200000000002,163.10748061647666L251.04733333333334,163.59189444250262L251.51266666666666,163.90474403778552L251.74533333333332,164.08024757432838L252.90866666666668,164.49228716688094L253.14133333333334,164.70999308107335L255.119,167.81929399775288L256.515,169.58639785174623L256.9803333333333,170.79056413486063L258.14366666666666,171.66203732201137L259.307,172.4418271238129L259.77233333333334,172.70393900004152L262.5643333333333,173.0147096867986L264.19300000000004,173.21048406098046L264.42566666666664,173.25027110179514L264.891,173.41182733774332L265.1236666666667,173.50457249403092L265.35633333333334,173.5209044117933L265.589,173.44225789899863L265.938,179.9498643982126L266.63599999999997,179.7149195735284L267.56666666666666,178.77941580203938L268.72999999999996,179.0561182235942L269.42800000000005,179.957425149397L270.3586666666667,181.0037877274251L271.0566666666667,181.19574073032712L271.28933333333333,181.46242067263225L271.75466666666665,181.8782199683529L271.9873333333333,182.157936457559L272.6853333333333,182.17549860701828L272.918,182.14120185509844L273.616,181.9091991194219L273.84866666666665,181.72458818007294L275.012,181.85215751200192L275.24466666666666,181.91250204962057L276.87333333333333,182.29379067374205L277.57133333333337,182.7045965287264L278.3856666666667,185.62251658995004L279.08366666666666,186.2974313960019L279.54900000000004,186.44446769151347L280.0143333333333,186.66559166188983L280.945,186.64981395289865L281.87566666666663,186.295624961171L282.57366666666667,186.263795989581L282.8063333333334,186.45919731725934L283.039,186.6429521290641L283.27166666666665,186.7008566885102L284.66766666666666,186.68956093960455L286.0636666666666,187.2296006022302L286.529,187.76736808648158L286.76166666666666,187.89771318930656L287.69233333333335,188.07939448653624L288.623,188.35783423601964L289.32099999999997,188.65539139282336L289.5536666666667,188.87599130732792L289.78633333333335,189.11187942184793L290.25166666666667,189.275128217684L290.60066666666665,207.83157959708382L292.69466666666665,202.0353145547438L292.92733333333337,198.39669947312646L293.62533333333334,196.88427932552324L293.858,195.8315390556563L294.09066666666666,195.15042284783775L294.556,194.2594186523977L294.78866666666664,193.8525589978351L296.1846666666667,193.38803014014087L297.11533333333335,193.5856250813837L297.34799999999996,193.76138409919952L297.81333333333333,193.76726623146186L298.2786666666667,193.50578210215835L298.9766666666667,193.39881308949626L299.20933333333335,193.30967993781945L299.44199999999995,193.25530120877016L299.67466666666667,193.261953193829L300.3726666666667,193.30299448900556L301.30333333333334,193.39537367780892L302.0013333333333,193.39548669791154L302.46666666666664,193.34536339364016L302.6993333333333,193.44873090697268L302.932,193.44747321673L304.2116666666667,197.8594201616512L304.44433333333336,200.55541321111122L305.60766666666666,202.17976830287216L306.53833333333336,202.48408187558317L307.23633333333333,202.46691225248617L308.16700000000003,202.2900917427423L309.09766666666667,202.28456143717068L309.56300000000005,202.23401830303723L310.7263333333333,201.86121715133228L311.4243333333333,201.6505336584142L316.194,201.84202460178682L316.65933333333334,203.59767610865202L316.892,204.90356859587052L317.8226666666667,205.09768205298437L318.288,204.82268818267264L319.21866666666665,205.33343830137304L319.684,205.5623725797466L320.1493333333333,205.65297559176275L321.54533333333336,205.97688095137113L322.9413333333334,206.15761575916184L323.872,206.9633212674783L325.50066666666663,207.83464711839713L325.73333333333335,208.41254140099744L325.966,208.78849020696197L326.19866666666667,209.0665156787426L327.36199999999997,209.29687881146617L327.82733333333334,209.5932202796623L328.409,206.66740930440932L328.64166666666665,204.6767327568704L328.87433333333337,204.29426520954223L329.107,203.84234024221087L330.96833333333336,206.41791320523254L331.201,208.15693860459706L331.899,209.81923979048958L333.5276666666666,211.0735982985796L334.2256666666667,212.4897716004552L336.3196666666667,213.88756904357083L336.78499999999997,214.75732932897452L337.0176666666667,215.39849726207282L337.25033333333334,215.79128756432073L337.9483333333333,216.1299685854217L338.181,216.5120639454425L339.1116666666667,216.67718007869135L340.27500000000003,216.80312501613267L340.39133333333336,207.79537627234438L341.322,212.75278366288177L341.5546666666667,216.13174117017175L341.7873333333333,218.35326469187967L342.02,219.3638015523257L342.9506666666667,219.38517784683117L343.18333333333334,219.39597224955685L343.8813333333333,219.50849380353046L344.114,219.55148643409584L345.9753333333333,219.65779992434608L346.906,219.82001078422803L347.3713333333333,220.320484139299L347.83666666666664,220.74671333895662L348.0693333333333,221.11750212828235L349.69800000000004,221.56409167957253L349.93066666666664,221.82916912860836L350.1633333333333,221.9432017888258L350.86133333333333,222.06681004080954L352.72266666666667,222.170079367839L353.07166666666666,217.97404740898773L354.0023333333333,216.80211462169262L354.235,216.2070312356315L354.93300000000005,215.9585428628541L355.3983333333333,216.30357706506354L357.02700000000004,218.00241706347046L359.58633333333336,220.43501804814085L360.0516666666667,221.82695006457178L361.44766666666663,222.9205431886149L361.68033333333335,223.54245333359438L362.14566666666667,223.91008055499668L362.611,224.06265080148867L363.54166666666663,224.11636984452545L364.4723333333333,224.15616948667133L364.9376666666667,224.31302337207177L365.98466666666667,224.74430783008205L366.21733333333333,225.96713623651667L366.45,227.20019174366473L368.3113333333334,228.27311645000745L369.70733333333334,228.87496744423845L370.638,229.48444496887774L370.87066666666664,229.94803292332801L371.10333333333335,230.0275245116872L373.19733333333335,230.48375933210383L373.66266666666667,230.6585201790353L374.3606666666667,230.63101379695067L375.75666666666666,230.7270265139492L375.9893333333333,230.76156995995944L377.61800000000005,230.97737983646454L377.967,230.19562375415842L382.62033333333335,230.51260397356438L382.85299999999995,230.66349490595866L383.08566666666667,230.78732242651589L383.7836666666667,230.81252440492992L384.0163333333333,231.10425401139662L384.24899999999997,231.26140489821674L388.437,231.02592972901488L389.135,231.07981832019698L389.6003333333333,231.12518462653287L391.11266666666666,232.4534185476024L391.3453333333333,232.04366882723096L392.27599999999995,233.51247839976264L392.74133333333333,234.01211751013344L393.20666666666665,234.11883056467377L394.37,234.40230071726805L394.8353333333333,234.60614316572767L395.30066666666664,234.6015327031018L396.23133333333334,234.8693526300551L398.558,234.9535354919887L400.4193333333333,235.6321172802243L400.652,236.09794250062666L400.88466666666665,236.35165895778866L401.35,236.55125759696327L402.048,236.4817214885673L403.095,237.71208935256723L403.793,239.12981365487533L405.189,238.4960172078941L405.65433333333334,238.7617701948842L406.11966666666666,238.95437113411194L406.3523333333334,239.28561687449795L407.05033333333336,239.4235489367257L407.5156666666667,239.71115336411057L408.21366666666665,240.01180044169936L410.075,240.69427961919135L411.70366666666666,241.28258196600333L413.0996666666667,241.77405633978879L414.0303333333333,242.21759079964662L414.263,242.57147402210055L414.4956666666667,242.81849910404097L414.72833333333335,242.96036835662017L416.008,244.60907261461904L416.706,246.2055321746522L418.3346666666667,247.045030940381L418.8,247.42884318161438L419.498,247.3227314003017L419.7306666666667,247.3595544247452L420.4286666666667,246.78127835682767L421.8246666666667,246.07733019883477L422.28999999999996,245.3110478919449L422.988,245.31272398243559L423.68600000000004,245.651710717739L423.9186666666667,245.9137429528602L424.384,245.96236468155192L424.6166666666667,245.96539950847028L426.0126666666667,246.0467136411631L428.68833333333333,246.82713831119324L431.2476666666667,248.44392836482874L432.17833333333334,249.50100991959306L433.807,251.06127775809134L434.27233333333334,251.63633926570992L435.43566666666663,251.92144164955963L435.6683333333333,251.94343977878296L436.3663333333334,251.7163612706054L436.599,251.51760896817376L437.06433333333337,251.39647002682406L437.297,251.28355467120008L437.995,251.38692624449254L441.834,250.80575866150573L442.06666666666666,251.00076524405313L442.2993333333333,251.58512902253048L443.4626666666667,253.03119716640222L444.16066666666666,253.69559279439397L445.09133333333335,254.50765971754524L445.324,255.25601232298928L445.5566666666667,255.6058820500893L446.48733333333337,255.88947265237115L446.72,256.2197280459972L447.418,256.07995413144664L448.34866666666665,256.3292171382918L448.81399999999996,256.6154522552499L451.8386666666667,256.9063612731939L452.0713333333333,256.93225684837375L454.049,257.88979443952957L454.28166666666664,259.42125592854933L456.841,258.99872490303113L458.70233333333334,258.77037375293014L458.935,258.60217338277L459.633,258.67007292195024L460.09833333333336,258.40722110798276L460.33099999999996,258.13674179870077L462.1923333333333,257.8011582384001L462.425,257.533689575761L462.65766666666667,257.43414959750737L463.5883333333333,257.43725438977583L464.0536666666667,257.2825936082917L464.519,257.13077943348395L466.264,259.1212020923108L467.4273333333333,259.31470738705457L467.65999999999997,259.23545710358894L468.358,258.74512133666207L469.9866666666667,258.5349432567854L472.77866666666665,258.7731893980562L473.942,259.3148975923097L474.17466666666667,259.62777021851747L474.64,259.8570380885995L474.87266666666665,260.10042800185664L476.26866666666666,260.22979749248975L477.781,257.3011834443006L478.01366666666667,256.4962799918886L480.10766666666666,257.30117509199596L481.0383333333333,258.156159194907L481.5036666666667,259.3281058028939L482.43433333333337,260.6200486395123L484.52833333333336,261.4898799641944L485.69166666666666,262.09333932304486L486.157,262.4935436481482L486.38966666666664,262.9608745237735L487.553,263.18225534323136L489.41433333333333,263.3789193127351L489.7633333333333,254.0129359420417L491.392,254.89104613401167L491.62466666666666,254.928782562838L492.55533333333335,256.65193611408836L493.71866666666665,258.4651388050649L494.41666666666663,259.71558831462465L494.882,260.4793765445304L495.58,260.9012645184846L496.27799999999996,261.619384199372L497.2086666666667,262.5402306020207L499.07,263.40859013199486L489.7633333333333,421.8328937017898L489.99600000000004,355.3546979501235L490.46133333333336,318.6180280729763L491.15933333333334,295.67981271056135L491.392,282.10788657729506L492.788,273.4702441362422L493.02066666666667,268.33768799709566L494.882,265.88518373255306L495.58,264.3134607320093L495.8126666666667,263.628141775433L496.04533333333336,263.194461473646L496.27799999999996,263.13911645938293L496.74333333333334,262.87388339835013L497.4413333333333,262.6010585260248L499.07,262.67792861651515L499.30266666666665,262.5637518941827L500.9313333333333,262.5544613110702L501.16400000000004,262.5417501871396L501.39666666666665,262.5112930264836L503.37433333333337,266.3392366008023L504.305,268.1419114730394L504.7703333333333,269.3594566620372L505.003,270.0605018876184L505.4683333333333,270.3001569713466L506.63166666666666,270.29510244162753L506.8643333333333,270.3179382826798L507.3296666666667,270.2821857181736L507.5623333333333,270.328111079189L507.79499999999996,270.3970847528295L508.49300000000005,270.7656100512216L508.9583333333333,271.1601290655535L509.4236666666667,271.2474535913707L512.2156666666667,270.9222464449073L514.3096666666667,270.68807663243206L515.5893333333333,269.89820021224733L515.822,269.2873813261551L517.218,269.6203837364889L517.4506666666666,269.46665420353276L519.5446666666667,268.6082469357244L521.1733333333333,268.4399023850674L523.0346666666667,268.88560490607705L523.2673333333333,269.18087242126165L523.9653333333333,269.3628147487622L525.594,269.66674037246594L526.0593333333334,269.9389256207268L526.99,270.1026682119442L529.2003333333333,268.075431445889L529.433,266.71896053531907L530.131,266.96398111092526L531.2943333333334,267.1835296863763L532.225,267.98746385064413L535.2496666666667,268.9912762515943L535.715,269.75808700759416L535.9476666666666,270.2470441391421L537.3436666666666,271.1294449645491L537.5763333333334,271.6920166300661L537.8090000000001,272.0057404212312L538.2743333333333,272.2447590453718L538.7396666666666,272.40307295461264L541.4153333333333,275.40182950579975L543.5093333333333,275.93352405121243L544.44,275.6246125214715L545.6033333333334,275.7159279533279L545.836,275.9084371774227L546.9993333333334,275.56891494088353L548.3953333333334,275.40793235953436L548.628,275.4216302386271L550.024,275.41771465249934L550.9546666666668,275.2998646122698L551.42,275.13299689426924L551.8853333333333,275.1236589058334L553.165,276.1121530118045L553.863,277.2650817622219L554.3283333333334,279.42171132501807L555.0263333333334,280.3068615671208L555.7243333333333,280.35935640789336L556.4223333333334,280.26704736028466L556.8876666666666,280.1006913869045L558.5163333333334,279.7995021276749L558.9816666666667,279.8170902212307L561.7736666666667,280.0670575785545L562.0063333333334,280.2324261002485L562.239,280.4405144770589L565.38,279.5674415540485L566.3106666666666,279.9029229230755L567.2413333333334,280.4459140149995L567.474,280.42411002208263L568.1719999999999,280.4732991259663L568.4046666666667,280.86117931612546L569.1026666666667,280.65865409617555L569.5680000000001,280.82070439007845L570.0333333333333,280.8640761908707L571.1966666666667,281.29766839366056L571.8946666666667,281.32017093670896L572.36,281.0998307572158L573.058,280.8773653332205L573.7560000000001,280.8206828012354L574.454,280.5447959646158L574.9193333333334,280.4051683750494L575.6173333333334,280.15018115083836L576.3153333333333,279.99670344376835L576.548,279.8925004827039L579.9216666666666,280.72653370064836L581.5503333333332,281.46570299245326L582.7136666666667,281.7035144697273L582.9463333333334,281.7851702529576L583.1790000000001,281.8316649531356L583.6443333333333,281.59575280755945L583.877,281.41960025555005L584.3423333333334,281.3504734559424L584.8076666666667,281.5363854243497L585.5056666666666,281.70360663379074L585.7383333333333,281.90692822244665L586.669,281.92965350214786L587.8323333333333,282.01357780494783L588.2976666666667,282.1250713503271L589.8100000000001,283.74169010137973L590.2753333333334,283.67884251007706L590.5079999999999,283.3603189738349L591.206,283.4897125215385L591.6713333333333,283.8540060789021L592.602,283.8438099545617L593.3,283.372921104573L593.7653333333334,283.55879027565885L594.2306666666667,283.77970036816936L594.4633333333334,284.1546450671693L596.79,285.19291650159L597.0226666666666,286.0576667958667L597.9533333333334,286.1298124417168L598.6513333333334,286.15505116131914L599.3493333333333,286.2099050578297L599.582,286.0887745318902L599.8146666666667,286.1022588311489L600.28,286.2273421704087L600.5126666666667,286.31010420437536L600.978,286.4474340874904L602.025,283.5661292909952L602.2576666666666,283.4419700646026L603.8863333333333,284.28869363925594L604.1189999999999,284.7756050900324L605.0496666666667,285.43066680882595L605.515,286.06133864196676L605.9803333333333,286.55256389303526L606.911,286.35142807199674L609.2376666666667,286.04851615449263L609.7030000000001,286.08835055840296L610.1683333333333,286.19589706905055L610.401,286.2390506067715L611.3316666666667,286.33183425658L611.797,286.4685796379629L612.0296666666667,286.45166479823484L612.2623333333332,286.54238349960747L613.8910000000001,286.4404528544336L614.7053333333333,284.7987596753829L615.4033333333333,287.1135759689565L617.9626666666667,288.0765603267047L618.8933333333333,288.9864176680382L619.3586666666666,289.6029447895131L620.0566666666666,290.05555416237365L620.522,290.11066160852346L620.7546666666667,289.97940050515314L621.22,290.29931446881756L621.4526666666666,290.51925266368187L621.6853333333333,290.7025212561071L621.918,290.77552219122526L622.3833333333333,290.825578665077L622.8486666666666,290.949505171382L623.0813333333334,291.0452893741152L624.012,291.08143945737015L624.2446666666666,291.09764659525945L624.71,290.9290414102196L625.408,290.980806603868L626.5713333333333,290.94351807525106L629.247,290.0033953624389L630.1776666666667,288.9943070195568L630.8756666666666,288.5368207325013L632.5043333333334,288.5374812620564L633.2023333333333,288.5253657542279L634.5983333333334,288.2968564535743L634.8309999999999,288.206256753538L635.2963333333333,288.30387246986265L635.9943333333333,288.34899528253095L636.6923333333334,288.40745639460096L636.925,288.41510052476406L637.1576666666666,288.5026857077723L639.368,291.141157914379L639.6006666666667,291.6553070838325L639.8333333333334,293.15234810680585L640.2986666666666,293.6856444750454L641.462,293.3776580854789L643.0906666666667,292.889328644546L643.3233333333334,292.82567849509246L643.556,292.7355535432835L643.7886666666667,292.749826217004L645.65,292.5559894706656L647.744,292.796544102779L648.9073333333333,292.9855671095557L650.7686666666666,293.1900152306382L651.0013333333333,293.2924063170328L651.583,282.9033206918462L654.1423333333333,288.7683731924667L654.8403333333333,292.5503867275222L655.5383333333333,295.1878487948599L655.771,296.7248987605585L656.0036666666666,297.7366709858426L656.469,297.95912152232216L658.3303333333333,296.80808037341524L658.7956666666666,296.1728780378156L659.2610000000001,295.75307064707596L659.7263333333333,295.5969663945169L662.053,295.92527235074823L663.9143333333333,295.99489057376377L664.0306666666667,313.5774859208727L665.194,308.00582554452797L666.59,303.9693577916215L668.4513333333334,300.6448819536442L669.8473333333334,298.41123136868924L670.08,296.94971585864334L670.3126666666667,296.19238796588485L670.5453333333334,295.8025457784933L671.0106666666666,295.70051798375863L672.174,295.4189421722437L676.4783333333334,287.8822212451187L676.9436666666667,290.14282056292814L677.8743333333334,291.605099228626L678.107,292.71352173543306L680.4336666666667,294.2527132133027L680.899,295.0622194826234L681.597,295.7446069848316L681.8296666666668,296.0649466593133L682.0623333333334,296.33306632513205L684.3889999999999,296.67332822128776L684.6216666666667,296.97464975145243L685.087,296.87356705919973L685.3196666666666,296.83102004203835L685.7850000000001,296.5991186170199L686.7156666666666,296.7487744252931L687.181,296.7118856764466L687.879,296.48902391532846L688.3443333333333,296.46311349356046L688.8096666666667,296.4492211024992L689.1586666666667,293.66737707144216L691.2526666666668,295.0699418049228L692.1833333333333,295.7941103733284L693.114,296.07947630624193L693.5793333333332,295.8175278362049L694.2773333333333,295.3986350927599L694.9753333333333,295.0872750421672L696.3713333333333,295.38712588192874L696.604,295.59432510877764L697.5346666666667,296.0605446597643L698.2326666666667,296.1199532092039L698.9306666666666,296.3888827646032L699.3960000000001,296.49093516375154L700.5593333333334,296.5461084348293L701.3736666666666,304.9258943737943L702.0716666666667,300.8987276757597L702.3043333333334,298.628632653048L702.537,298.0862440277877L702.7696666666667,297.94372439442526L703.4676666666667,300.8263016704228L704.3983333333333,301.97142354032434L705.7943333333334,303.002068515903L706.027,303.63365044372455L706.725,303.7563408742975L708.5863333333334,303.78668506924095L709.7496666666666,303.1405424117075L710.4476666666667,302.6758084201232L711.1456666666666,302.43693036457387L711.3783333333333,302.12505342138104L711.8436666666666,301.9129934881466L712.5416666666667,301.7714300497972L712.7743333333334,301.69296362069855L713.2396666666666,301.54611274044277L714.5193333333333,298.3647050168548L715.2173333333334,298.666966015484L715.9153333333334,299.40049680136804L716.148,299.7353793147991L717.0786666666667,301.2547963716858L718.4746666666666,301.9670843278333L721.4993333333333,302.93676204651376L722.43,303.50256936055285L722.8953333333333,303.94353256405515L724.0586666666667,304.0947849856682L725.222,304.2466034952919L726.1526666666667,304.0199014225077L727.1996666666668,301.2178186821027L728.1303333333333,302.0841277269771L729.061,303.163278044954L729.7589999999999,304.17700878482765L733.249,304.9247828465802L735.5756666666667,305.03097201240666L735.8083333333333,305.102721124009L736.0409999999999,304.9035696918462L736.739,304.7425884684738L738.135,304.5570327449331L739.4146666666667,301.70397362759644L739.6473333333333,300.7002068141158L739.88,300.7028647291097L740.1126666666667,301.36790981456244L740.3453333333333,302.76622904875643L740.5780000000001,303.78186024152495L740.8106666666667,303.7247865016654L742.672,304.22538684698316L748.0233333333333,304.75696415240986L748.256,305.0768992575134L748.4886666666666,305.25622265768794L750.1173333333334,305.23603788156953L752.5603333333333,305.6525649019459L753.0256666666667,305.60688923528073L753.9563333333334,307.3844584866183L755.8176666666667,308.08382469676826L756.0503333333334,308.8574248210365L756.7483333333333,309.1100523505076L757.2136666666667,309.2643074055591L757.4463333333333,309.36286467671863L757.9116666666667,309.6535217425852L762.3323333333334,309.44826476941284L763.4956666666667,309.19948898058993L764.0773333333333,311.2545339244715L764.7753333333334,312.7975881086654L766.8693333333333,310.69448022764124L767.102,309.82386172247647L768.4979999999999,309.7393685605092L768.9633333333334,309.6057278887012L769.196,309.4325856551872L770.592,309.63617483290113L771.2900000000001,309.7570340127473L771.5226666666667,309.8470409089759L772.686,309.66222377863136L773.1513333333334,309.58374560026294L773.6166666666667,309.50350954620814L774.3146666666667,309.46349340968595L774.5473333333333,309.47176999028477L776.2923333333333,307.7734558235166L777.4556666666666,308.4129853040312L777.921,308.29103468598925L778.1536666666667,308.17175392354727L778.3863333333334,307.2652548077416L779.317,306.5450931979842L780.9456666666667,306.44668086729206L783.2723333333333,306.5773961565599L785.1336666666667,306.55990133414895L788.9726666666667,313.8966324432506L790.1360000000001,312.5052464547046L790.6013333333333,311.86397064580257L790.834,311.49804480584703L791.532,311.87084154911184L793.8586666666666,311.4203910626611L795.2546666666666,311.31626199469815L796.1853333333333,311.4506840156665L797.3486666666666,311.3367208151312L797.814,310.9921479408914L798.2793333333334,310.6740921130761L798.7446666666666,310.5106911534657L799.2099999999999,310.62578305450614L800.1406666666667,310.6233446171733L800.3733333333333,310.6560374004157L800.955,298.7576358737058L801.1876666666667,302.6853046668474L801.4203333333334,304.30814849453594L802.351,307.5151077933158L802.8163333333333,309.8497287766364L803.5143333333334,311.10992309667034L803.7470000000001,312.074048788651L804.2123333333333,312.5597281642581L805.3756666666667,312.5304663293257L805.841,312.6104331560549L806.0736666666667,312.5653116075764L806.3063333333333,312.38196669629633L807.7023333333334,312.0621349967207L808.1676666666666,311.99508458117754L808.8656666666667,312.1386667116887L810.9596666666666,312.06822042610685L811.6576666666667,312.28762238589786L812.1229999999999,312.53634620528135L812.5883333333333,312.5752571154875L813.0536666666667,312.4439675646569L813.4026666666666,302.4319188974825L815.4966666666667,307.6882629145698L816.4273333333333,310.4694829791496L816.8926666666667,312.0914394861287L817.5906666666666,312.8190328601495L819.452,313.67687427541586L820.3826666666666,313.9555262776671L821.3133333333334,313.86379819228995L822.7093333333333,314.0420277900383L824.338,314.081984137707L824.8033333333334,313.9618742079813L825.8503333333333,314.1012868649529L827.479,314.3817799905995L828.177,313.93953113675474L828.4096666666667,313.4884099776766L829.573,312.96883105130325L829.8056666666666,312.7909566336354L830.0383333333334,312.8179790838647L830.5036666666667,312.91640028143456L831.2016666666666,313.33827796449975L832.365,313.91489638609113L833.063,313.971243844762L833.2956666666666,314.0607802786437L833.761,314.15980357635067L835.1569999999999,314.0309649152043L837.4836666666666,313.8383947278549L838.996,311.62785888108556L839.6940000000001,311.55009532209004L839.9266666666666,311.6722929014907L841.5553333333334,310.78807928169647L841.788,310.68854395154045L842.0206666666666,311.0390883898909L842.2533333333333,311.26180104113666L843.4166666666667,312.0135415774408L844.1146666666666,312.0560999621047L849.6986666666667,312.5784946864303L850.3966666666666,313.155291067687L850.7456666666667,340.54278558917485L851.909,333.08774448888096L852.607,327.8788950530087L852.8396666666667,324.2889220766661L853.305,321.0566562207006L853.5376666666666,318.8306392783798L855.1663333333333,318.10118751256925L855.6316666666667,318.1827392371253L856.097,318.1663427228782L858.191,317.8536683008107L859.3543333333334,317.4858106663842L859.587,317.4142312938582L860.9830000000001,317.3923164805538L861.4483333333334,317.41028536562715L861.9136666666666,317.4362750363624L862.379,317.43243596030925L863.1933333333333,329.0170537297347L863.8913333333334,325.59845121290795L864.822,322.6958384012372L866.9159999999999,321.5113166031355L867.1486666666666,320.7813144598672L867.3813333333333,320.207840304033L868.7773333333333,319.47838798788547L870.6386666666667,319.29695734755603L871.5693333333334,318.85827933178194L872.0346666666667,318.7972571517577L872.2673333333333,318.845566062066L872.5,318.79750301118673L873.4306666666666,318.9385455708264L874.594,319.1945255911683L876.1063333333333,314.62400061585515L877.037,315.39504579721694L877.9676666666667,315.6070229293037L878.2003333333333,315.8373239088731L878.8983333333333,316.7390674143241L879.8290000000001,317.19792376692334L880.2943333333333,317.5706536456063L881.6903333333333,317.48595417047227L882.3883333333333,317.2777119905036L882.8536666666666,317.3103150147367L883.319,317.3766523610454L883.7843333333334,317.40016782348755L884.4823333333333,317.453718114289L884.9476666666667,317.6166292240574L885.6456666666667,317.61165667834007L886.5763333333333,317.4255978182681L887.0416666666666,317.3599650332765L888.3213333333333,321.21712018665295L889.4846666666666,320.027203283409L889.7173333333333,320.0479813347457L890.648,319.9382601219533L892.2766666666666,320.0164931558441L894.138,320.4758917774481L894.836,320.56356593881384L895.534,320.7235456282755L895.7666666666667,320.89447855799557L896.4646666666666,320.84669866471984L897.6279999999999,321.1578813928932L899.024,321.51119964948714L899.2566666666667,321.71715041179317L900.1873333333333,321.6613307725123L900.5363333333333,315.1871251064975L901.9323333333333,315.9399228929543L902.1650000000001,315.9024718784728L902.6303333333334,315.0179976095818L903.561,315.1420266789235L905.1896666666667,316.6068387128137L906.5856666666667,317.632578092648L907.2836666666666,318.50463998188576L908.6796666666667,319.71446354311706L910.541,320.6229116864323L911.2389999999999,321.0987700430941L911.7043333333334,321.41223892023515L911.937,321.5866399315021L912.984,297.1599949185265L913.2166666666667,303.2944194784291L913.9146666666667,309.9225798791961L914.38,314.34276506580807L914.6126666666667,315.98557093905146L915.078,316.5475781629487L916.2413333333333,317.70473851382764L918.568,319.61728385460395L919.964,320.37063462359913L920.4293333333333,320.9202409197283L920.6619999999999,321.1857018237944L921.5926666666667,321.48081077132434L921.8253333333333,321.68717826005104L922.756,321.84486697075533L923.2213333333333,321.68235858653645L924.6173333333332,321.9033837817589L924.85,322.07179062977315L925.4316666666666,323.8883929813795L926.3623333333334,321.105926404291L929.1543333333334,322.3484839736781L930.3176666666667,322.496273239813L930.5503333333334,322.6064290287266L931.0156666666667,322.75735483659327L931.9463333333333,322.46065493877546L933.1096666666667,322.41643603119746L933.3423333333334,322.20183181448874L934.7383333333333,322.02864870836794L934.971,321.96892572289977L935.4363333333333,321.72022910622525L938.112,320.89592983548505L939.0426666666666,323.3983819140474L939.508,324.98180921396494L939.9733333333334,325.7883211584144L940.6713333333333,325.49955118961645L941.3693333333333,324.91199677746L943.4633333333333,324.20791059470474L944.8593333333334,323.93369525513833L945.3246666666666,323.6456117739784L947.884,323.3789050168101L948.1166666666667,323.3732653848115L949.5126666666666,323.441159462439L951.025,321.6822783324164L956.6089999999999,322.90780511933815L956.8416666666666,323.7208527054682L957.307,324.41661845006314L958.005,324.76616169427496L958.4703333333333,325.03848272213133L963.24,329.7922412255334L963.938,330.39968426817217L964.8686666666667,329.1484168040368L965.1013333333334,328.212333897806L965.3340000000001,327.645057427917L965.7993333333333,327.3419214177335L966.73,327.6163978629234L967.428,327.60798549967546L967.8933333333333,327.8618393916937L968.3586666666666,327.67834583396035L969.9873333333333,327.5472887961526L970.6853333333333,327.6152011280334L970.918,327.53311332017637L971.6160000000001,327.53646063775096L972.7793333333333,327.5962822912351L974.6406666666667,327.7490781592259L975.4549999999999,323.99822304528533L975.9203333333334,322.50559223819715L976.3856666666667,323.7198922462996L976.6183333333333,324.96749729083405L978.0143333333333,324.2289507518197L978.945,324.385239942669L979.4103333333333,324.5581831120247L979.8756666666667,324.5272491444823L980.5736666666667,324.2858128827617L982.6676666666667,325.06301514397893L983.1329999999999,325.39569726044436L983.3656666666666,325.5715951827437L984.2963333333333,325.6969443265957L985.4596666666666,326.09693995144147L985.925,326.5240034999024L988.1353333333334,324.5197897876245L988.6006666666666,325.2415120199288L989.066,327.0078277823308L992.0906666666667,327.42519971352687L993.0213333333334,327.7838609494083L993.4866666666667,327.82707401974875L995.8133333333334,327.8602644733421L996.046,327.8211071092982" style="fill: none;" fill="none"></path></g></g></g></g><g opacity="0.2"><g><g><g><path stroke="rgb(255, 112, 67)" stroke-width="2px" d="M117.49666666666667,12.302531123161316L119.82333333333334,-55.243125438690186L152.862,-35.485586643218994L154.83966666666666,12.017374753952026L155.07233333333332,12.506028056144714L155.77033333333335,12.724310874938965L157.16633333333334,13.424910187721252L157.399,14.496145367622375L158.56233333333333,17.0191388130188L159.02766666666665,17.724726676940918L159.26033333333334,17.944133043289185L160.191,19.838838696479797L160.4236666666667,20.04750394821167L162.0523333333333,21.922749757766724L163.91366666666667,24.631083607673645L164.14633333333333,25.08261489868164L164.379,25.21932816505432L165.30966666666666,26.340179204940796L167.75266666666664,48.73769521713257L169.14866666666668,51.331382274627686L170.31199999999998,52.57070016860962L171.01,53.824039936065674L173.80200000000002,58.73403263092041L175.198,59.960811734199524L176.36133333333333,61.3510445356369L177.0593333333333,61.97933232784271L177.99,62.79125273227692L178.80433333333335,79.24232590198517L179.26966666666667,79.67309403419495L180.433,78.75623428821564L183.6903333333333,82.36318147182465L184.85366666666667,84.51490986347198L185.08633333333333,84.9500823020935L186.24966666666668,87.6277208328247L187.18033333333335,88.98069679737091L187.41299999999998,89.2031592130661L187.87833333333333,90.13880467414856L189.73966666666666,93.37214982509613L189.97233333333332,93.6935293674469L191.252,117.49615395069122L191.48466666666667,110.01206886768341L191.71733333333333,111.25651013851166L192.41533333333334,110.6330760717392L194.50933333333333,110.90524423122406L196.37066666666666,111.31277740001678L200.09333333333333,109.50732636451721L201.024,109.44481217861176L202.42,109.91041028499603L203.35066666666665,110.08658254146576L203.69966666666667,120.57593262195587L206.49166666666665,117.41319119930267L206.72433333333333,117.84701538085938L210.447,121.94045865535736L213.47166666666666,124.27874088287354L213.70433333333332,124.53544902801514L214.16966666666664,125.12364864349365L215.5656666666667,126.58282232284546L217.54333333333335,140.62914419174194L218.00866666666667,140.57247245311737L218.24133333333333,140.86778569221497L218.93933333333334,140.96890497207642L220.33533333333332,140.38281762599945L222.42933333333332,140.17033231258392L223.12733333333333,140.26336205005646L223.36,140.3087533712387L225.45399999999998,140.53022706508636L225.68666666666667,140.42537760734558L229.06033333333332,143.302827835083L229.52566666666667,147.75009870529175L229.991,147.47348129749298L233.24833333333333,148.2287299633026L234.41166666666666,148.19857394695282L234.877,148.10648798942566L235.57500000000002,148.58215308189392L237.43633333333332,149.7935620546341L238.8323333333333,150.46760070323944L239.2976666666667,151.09265267848969L239.99566666666666,151.74475967884064L241.27533333333335,159.33472788333893L242.43866666666665,156.2712631225586L242.67133333333334,157.18839251995087L244.76533333333333,160.33935916423798L245.23066666666668,160.44241094589233L246.16133333333332,160.69763600826263L246.394,160.8662130832672L247.55733333333336,161.53557777404785L248.488,162.15541648864746L248.72066666666666,162.31037616729736L249.884,162.9428435564041L250.34933333333333,163.57764792442322L250.58200000000002,163.65629625320435L251.04733333333334,164.31851518154144L251.51266666666666,164.37401843070984L251.74533333333332,164.34350287914276L252.90866666666668,165.11034655570984L253.14133333333334,165.03655195236206L255.119,172.48324537277222L256.515,172.2370536327362L256.9803333333333,172.59681355953217L258.14366666666666,172.96924710273743L259.307,173.6115118265152L259.77233333333334,173.09710681438446L262.5643333333333,173.4808657169342L264.19300000000004,173.50414562225342L264.42566666666664,173.30995166301727L264.891,173.65416169166565L265.1236666666667,173.64369022846222L265.35633333333334,173.5454022884369L265.589,173.32428812980652L265.938,189.7112741470337L266.63599999999997,179.36250233650208L267.56666666666666,177.3761601448059L268.72999999999996,179.4711718559265L269.42800000000005,181.3093855381012L270.3586666666667,182.57333159446716L271.0566666666667,181.48367023468018L271.28933333333333,181.8624405860901L271.75466666666665,182.5019189119339L271.9873333333333,182.5775111913681L272.6853333333333,182.20184183120728L272.918,182.08975672721863L273.616,181.5611950159073L273.84866666666665,181.4476717710495L275.012,182.04351150989532L275.24466666666666,182.00301885604858L276.87333333333333,182.86572360992432L277.57133333333337,183.320805311203L278.3856666666667,189.99939668178558L279.08366666666666,187.30980360507965L279.54900000000004,186.66502213478088L280.0143333333333,186.99727761745453L280.945,186.62614738941193L281.87566666666663,185.7643414735794L282.57366666666667,186.21605253219604L282.8063333333334,186.75229930877686L283.039,186.91858434677124L283.27166666666665,186.78771352767944L284.66766666666666,186.67261731624603L286.0636666666666,188.03966009616852L286.529,188.57401931285858L286.76166666666666,188.093230843544L287.69233333333335,188.35191643238068L288.623,188.77549386024475L289.32099999999997,189.10172712802887L289.5536666666667,189.20689117908478L289.78633333333335,189.46571159362793L290.25166666666667,189.520001411438L290.60066666666665,235.66625666618347L292.69466666666665,193.34091699123383L292.92733333333337,192.93877685070038L293.62533333333334,194.61564910411835L293.858,194.25242865085602L294.09066666666666,194.12874853610992L294.556,192.92291235923767L294.78866666666664,193.2422695159912L296.1846666666667,192.69123685359955L297.11533333333335,193.882017493248L297.34799999999996,194.02502262592316L297.81333333333333,193.77608942985535L298.2786666666667,193.11355590820312L298.9766666666667,193.23835957050323L299.20933333333335,193.17598021030426L299.44199999999995,193.17373311519623L299.67466666666667,193.27193117141724L300.3726666666667,193.36455643177032L301.30333333333334,193.5339424610138L302.0013333333333,193.3956562280655L302.46666666666664,193.27017843723297L302.6993333333333,193.60378217697144L302.932,193.44558668136597L304.2116666666667,204.4773405790329L304.44433333333336,204.5994027853012L305.60766666666666,204.6163009405136L306.53833333333336,202.94055223464966L307.23633333333333,202.44115781784058L308.16700000000003,202.02486097812653L309.09766666666667,202.27626597881317L309.56300000000005,202.15820360183716L310.7263333333333,201.30201542377472L311.4243333333333,201.33450841903687L316.194,202.1292610168457L316.65933333333334,206.2311533689499L316.892,206.8624073266983L317.8226666666667,205.3888522386551L318.288,204.4101973772049L319.21866666666665,206.09956347942352L319.684,205.90577399730682L320.1493333333333,205.788880109787L321.54533333333336,206.4627389907837L322.9413333333334,206.42871797084808L323.872,208.171879529953L325.50066666666663,209.1416358947754L325.73333333333335,209.27938282489777L325.966,209.3524134159088L326.19866666666667,209.48355388641357L327.36199999999997,209.64242351055145L327.82733333333334,210.03773248195648L328.409,202.27869284152985L328.64166666666665,201.69071793556213L328.87433333333337,203.7205638885498L329.107,203.164452791214L330.96833333333336,210.28127264976501L331.201,210.7654767036438L331.899,212.3126915693283L333.5276666666666,212.95513606071472L334.2256666666667,214.61403155326843L336.3196666666667,215.98426520824432L336.78499999999997,216.06196975708008L337.0176666666667,216.36024916172028L337.25033333333334,216.38047301769257L337.9483333333333,216.63799011707306L338.181,217.08520698547363L339.1116666666667,216.92485427856445L340.27500000000003,216.99204242229462L340.39133333333336,194.283753156662L341.322,220.18889474868774L341.5546666666667,221.20017743110657L341.7873333333333,221.68554997444153L342.02,220.8796068429947L342.9506666666667,219.41724228858948L343.18333333333334,219.41216385364532L343.8813333333333,219.67727613449097L344.114,219.61597537994385L345.9753333333333,219.81727015972137L346.906,220.0633270740509L347.3713333333333,221.07119417190552L347.83666666666664,221.386057138443L348.0693333333333,221.67368531227112L349.69800000000004,222.23397600650787L349.93066666666664,222.22678530216217L350.1633333333333,222.11425077915192L350.86133333333333,222.2522224187851L352.72266666666667,222.32498335838318L353.07166666666666,211.67999947071075L354.0023333333333,215.04421544075012L354.235,215.31440615653992L354.93300000000005,215.58581030368805L355.3983333333333,216.82112836837769L357.02700000000004,220.55067706108093L359.58633333333336,224.08391952514648L360.0516666666667,223.91484808921814L361.44766666666663,224.56093287467957L361.68033333333335,224.47531855106354L362.14566666666667,224.46152138710022L362.611,224.2915061712265L363.54166666666663,224.1969484090805L364.4723333333333,224.21586894989014L364.9376666666667,224.54830420017242L365.98466666666667,225.39123451709747L366.21733333333333,227.80137884616852L366.45,229.0497750043869L368.3113333333334,229.88250350952148L369.70733333333334,229.77774393558502L370.638,230.3986612558365L370.87066666666664,230.64341485500336L371.10333333333335,230.14676189422607L373.19733333333335,231.16811156272888L373.66266666666667,230.92066144943237L374.3606666666667,230.58975422382355L375.75666666666666,230.87104558944702L375.9893333333333,230.81338512897491L377.61800000000005,231.30109465122223L377.967,229.02298963069916L382.62033333333335,230.98807430267334L382.85299999999995,230.88983130455017L383.08566666666667,230.97306370735168L383.7836666666667,230.85032737255096L384.0163333333333,231.5418484210968L384.24899999999997,231.49713122844696L388.437,230.6727169752121L389.135,231.16065120697021L389.6003333333333,231.19323408603668L391.11266666666666,234.44576942920685L391.3453333333333,231.42904424667358L392.27599999999995,235.71569275856018L392.74133333333333,234.7615761756897L393.20666666666665,234.27890014648438L394.37,234.82750594615936L394.8353333333333,234.91190683841705L395.30066666666664,234.5946170091629L396.23133333333334,235.27108252048492L398.558,235.07980978488922L400.4193333333333,236.64998996257782L400.652,236.79668033123016L400.88466666666665,236.7322336435318L401.35,236.8506555557251L402.048,236.3774173259735L403.095,239.5576411485672L403.793,241.2564001083374L405.189,237.54532253742218L405.65433333333334,239.16039967536926L406.11966666666666,239.2432725429535L406.3523333333334,239.7824854850769L407.05033333333336,239.63044703006744L407.5156666666667,240.142560005188L408.21366666666665,240.46277105808258L410.075,241.71799838542938L411.70366666666666,242.1650354862213L413.0996666666667,242.51126790046692L414.0303333333333,242.8828924894333L414.263,243.10229885578156L414.4956666666667,243.1890367269516L414.72833333333335,243.1731722354889L416.008,247.08212900161743L416.706,248.60022151470184L418.3346666666667,248.304279088974L418.8,248.00456154346466L419.498,247.16356372833252L419.7306666666667,247.41478896141052L420.4286666666667,245.91386425495148L421.8246666666667,245.0214079618454L422.28999999999996,244.1616244316101L422.988,245.3152381181717L423.68600000000004,246.16019082069397L423.9186666666667,246.306791305542L424.384,246.03529727458954L424.6166666666667,245.96995174884796L426.0126666666667,246.16868484020233L428.68833333333333,247.9977753162384L431.2476666666667,250.86911344528198L432.17833333333334,251.0866322517395L433.807,253.40167951583862L434.27233333333334,252.49893152713776L435.43566666666663,252.34909522533417L435.6683333333333,251.9764369726181L436.3663333333334,251.37574350833893L436.599,251.21948051452637L437.06433333333337,251.2147616147995L437.297,251.11418163776398L437.995,251.54198360443115L441.834,249.93400728702545L442.06666666666666,251.29327511787415L442.2993333333333,252.46167469024658L443.4626666666667,255.20029938220978L444.16066666666666,254.69218623638153L445.09133333333335,255.72576010227203L445.324,256.3785412311554L445.5566666666667,256.13068664073944L446.48733333333337,256.31485855579376L446.72,256.71511113643646L447.418,255.87029325962067L448.34866666666665,256.70311164855957L448.81399999999996,257.04480493068695L451.8386666666667,257.34272480010986L452.0713333333333,256.9711002111435L454.049,259.3261008262634L454.28166666666664,261.71844816207886L456.841,258.3649283647537L458.70233333333334,258.4278470277786L458.935,258.3498728275299L459.633,258.7719222307205L460.09833333333336,258.01294338703156L460.33099999999996,257.73102283477783L462.1923333333333,257.2977828979492L462.425,257.13248658180237L462.65766666666667,257.28483963012695L463.5883333333333,257.4419115781784L464.0536666666667,257.0506024360657L464.519,256.9030581712723L466.264,262.10683608055115L467.4273333333333,259.6049653291702L467.65999999999997,259.1165816783905L468.358,258.00961768627167L469.9866666666667,258.2196761369705L472.77866666666665,259.13055860996246L473.942,260.1274598836899L474.17466666666667,260.0970791578293L474.64,260.20093989372253L474.87266666666665,260.46551287174225L476.26866666666666,260.42385172843933L477.781,252.9082623720169L478.01366666666667,255.28892481327057L480.10766666666666,258.508517742157L481.0383333333333,259.4386353492737L481.5036666666667,261.08602571487427L482.43433333333337,262.5579628944397L484.52833333333336,262.79462695121765L485.69166666666666,262.9985283613205L486.157,263.0938501358032L486.38966666666664,263.6618708372116L487.553,263.5143265724182L489.41433333333333,263.67391526699066L489.7633333333333,239.9639608860016L491.392,256.20821142196655L491.62466666666666,254.98538720607758L492.55533333333335,259.23666644096375L493.71866666666665,261.18494284152985L494.41666666666663,261.59126257896423L494.882,261.62505888938904L495.58,261.5340964794159L496.27799999999996,262.6965637207031L497.2086666666667,263.92150020599365L499.07,264.7111294269562L489.7633333333333,659.4693490564823L489.99600000000004,255.6374043226242L490.46133333333336,263.51302325725555L491.15933333333334,261.2724896669388L491.392,261.74999737739563L492.788,260.5137804746628L493.02066666666667,260.63885378837585L494.882,262.20642733573914L495.58,261.95587623119354L495.8126666666667,262.60016334056854L496.04533333333336,262.5439410209656L496.27799999999996,263.0560989379883L496.74333333333334,262.47603380680084L497.4413333333333,262.1918212175369L499.07,262.79323375225067L499.30266666666665,262.3924868106842L500.9313333333333,262.54052543640137L501.16400000000004,262.5226835012436L501.39666666666665,262.4656072854996L503.37433333333337,272.0811519622803L504.305,270.84592378139496L504.7703333333333,271.18577444553375L505.003,271.1120697259903L505.4683333333333,270.6596395969391L506.63166666666666,270.28752064704895L506.8643333333333,270.3521920442581L507.3296666666667,270.2285568714142L507.5623333333333,270.3969991207123L507.79499999999996,270.5005452632904L508.49300000000005,271.3183979988098L508.9583333333333,271.7519075870514L509.4236666666667,271.37844038009644L512.2156666666667,270.4344357252121L514.3096666666667,270.3368219137192L515.5893333333333,268.7133855819702L515.822,268.3711529970169L517.218,270.11988735198975L517.4506666666666,269.2360599040985L519.5446666666667,267.32063603401184L521.1733333333333,268.18738555908203L523.0346666666667,269.55415868759155L523.2673333333333,269.6237736940384L523.9653333333333,269.6357282400131L525.594,270.12262880802155L526.0593333333334,270.3472034931183L526.99,270.34828209877014L529.2003333333333,265.03457629680634L529.433,264.6842541694641L530.131,267.3315119743347L531.2943333333334,267.5128525495529L532.225,269.1933650970459L535.2496666666667,270.4969948530197L535.715,270.90830314159393L535.9476666666666,270.9804798364639L537.3436666666666,272.4530462026596L537.5763333333334,272.5358741283417L537.8090000000001,272.4763261079788L538.2743333333333,272.60328698158264L538.7396666666666,272.6405438184738L541.4153333333333,279.89996433258057L543.5093333333333,276.73106586933136L544.44,275.16124522686005L545.6033333333334,275.85290110111237L545.836,276.19720101356506L546.9993333333334,275.05963158607483L548.3953333333334,275.1664584875107L548.628,275.44217705726624L550.024,275.4118412733078L550.9546666666668,275.12308955192566L551.42,274.8826953172684L551.8853333333333,275.1096519231796L553.165,277.5948941707611L553.863,278.9944748878479L554.3283333333334,282.65665566921234L555.0263333333334,281.63458693027496L555.7243333333333,280.4380986690521L556.4223333333334,280.12858378887177L556.8876666666666,279.8511574268341L558.5163333333334,279.34771823883057L558.9816666666667,279.84347236156464L561.7736666666667,280.4420086145401L562.0063333333334,280.4804788827896L562.239,280.7526470422745L565.38,278.2578321695328L566.3106666666666,280.4061449766159L567.2413333333334,281.26040065288544L567.474,280.3914040327072L568.1719999999999,280.5470827817917L568.4046666666667,281.44299960136414L569.1026666666667,280.3548662662506L569.5680000000001,281.0637798309326L570.0333333333333,280.9291338920593L571.1966666666667,281.94805669784546L571.8946666666667,281.35392475128174L572.36,280.7693204879761L573.058,280.5436671972275L573.7560000000001,280.73565900325775L574.454,280.1309657096863L574.9193333333334,280.19572699069977L575.6173333333334,279.7677003145218L576.3153333333333,279.76648688316345L576.548,279.7361960411072L579.9216666666666,281.977583527565L581.5503333333332,282.5744569301605L582.7136666666667,282.0602316856384L582.9463333333334,281.90765392780304L583.1790000000001,281.9014070034027L583.6443333333333,281.24188458919525L583.877,281.155371427536L584.3423333333334,281.24678325653076L584.8076666666667,281.81525337696075L585.5056666666666,281.95443844795227L585.7383333333333,282.2119106054306L586.669,281.9637414216995L587.8323333333333,282.13946425914764L588.2976666666667,282.292311668396L589.8100000000001,286.1666182279587L590.2753333333334,283.58457112312317L590.5079999999999,282.88253366947174L591.206,283.6838028430939L591.6713333333333,284.4004464149475L592.602,283.82851576805115L593.3,282.66658782958984L593.7653333333334,283.8375940322876L594.2306666666667,284.1110655069351L594.4633333333334,284.71706211566925L596.79,286.75032365322113L597.0226666666666,287.3547922372818L597.9533333333334,286.23803091049194L598.6513333333334,286.19290924072266L599.3493333333333,286.2921859025955L599.582,285.90707874298096L599.8146666666667,286.1224852800369L600.28,286.4149671792984L600.5126666666667,286.4342472553253L600.978,286.6534289121628L602.025,279.24417209625244L602.2576666666666,283.25573122501373L603.8863333333333,285.55877900123596L604.1189999999999,285.5059722661972L605.0496666666667,286.4132593870163L605.515,287.00734639167786L605.9803333333333,287.28940176963806L606.911,286.04972434043884L609.2376666666667,285.5941482782364L609.7030000000001,286.1481021642685L610.1683333333333,286.357216835022L610.401,286.30378091335297L611.3316666666667,286.4710097312927L611.797,286.67369771003723L612.0296666666667,286.4262925386429L612.2623333333332,286.67846155166626L613.8910000000001,286.287556886673L614.7053333333333,282.33621990680695L615.4033333333333,290.585800409317L617.9626666666667,289.521036863327L618.8933333333333,290.35120368003845L619.3586666666666,290.52773547172546L620.0566666666666,290.73446822166443L620.522,290.1933227777481L620.7546666666667,289.78250885009766L621.22,290.77918541431427L621.4526666666666,290.8491599559784L621.6853333333333,290.9774241447449L621.918,290.8850235939026L622.3833333333333,290.9006633758545L622.8486666666666,291.13539493083954L623.0813333333334,291.188965678215L624.012,291.1356645822525L624.2446666666666,291.1219573020935L624.71,290.6761336326599L625.408,291.0584543943405L626.5713333333333,290.88758528232574L629.247,288.5932112932205L630.1776666666667,287.48067450523376L630.8756666666666,287.85059130191803L632.5043333333334,288.53847205638885L633.2023333333333,288.50719249248505L634.5983333333334,287.954092502594L634.8309999999999,288.0703572034836L635.2963333333333,288.45029604434967L635.9943333333333,288.4166795015335L636.6923333333334,288.495148062706L636.925,288.42656672000885L637.1576666666666,288.63406348228455L639.368,295.09886622428894L639.6006666666667,292.4265308380127L639.8333333333334,295.39790964126587L640.2986666666666,294.4855890274048L641.462,292.91567850112915L643.0906666666667,292.15683448314667L643.3233333333334,292.73020327091217L643.556,292.60036611557007L643.7886666666667,292.77123522758484L645.65,292.26523435115814L647.744,293.1573760509491L648.9073333333333,293.26910161972046L650.7686666666666,293.49668741226196L651.0013333333333,293.44599294662476L651.583,267.31969225406647L654.1423333333333,297.5659519433975L654.8403333333333,298.2234070301056L655.5383333333333,299.1440418958664L655.771,299.03047370910645L656.0036666666666,299.2543293237686L656.469,298.2927973270416L658.3303333333333,295.08151865005493L658.7956666666666,295.2200745344162L659.2610000000001,295.1233595609665L659.7263333333333,295.3628100156784L662.053,296.4177312850952L663.9143333333333,296.09931790828705L664.0306666666667,339.95137894153595L665.194,299.648334980011L666.59,297.91465616226196L668.4513333333334,295.65816819667816L669.8473333333334,295.0607554912567L670.08,294.7574425935745L670.3126666666667,295.05639612674713L670.5453333333334,295.217782497406L671.0106666666666,295.5474762916565L672.174,294.9965784549713L676.4783333333334,276.57713985443115L676.9436666666667,293.53371953964233L677.8743333333334,293.79851722717285L678.107,294.3761554956436L680.4336666666667,296.5615004301071L680.899,296.2764788866043L681.597,296.7681882381439L681.8296666666668,296.54545617103577L682.0623333333334,296.73524582386017L684.3889999999999,297.18372106552124L684.6216666666667,297.4266320466995L685.087,296.7219430208206L685.3196666666666,296.7671995162964L685.7850000000001,296.2512664794922L686.7156666666666,296.97325813770294L687.181,296.6565525531769L687.879,296.1547312736511L688.3443333333333,296.4242478609085L688.8096666666667,296.4283825159073L689.1586666666667,289.49461102485657L691.2526666666668,297.17378890514374L692.1833333333333,296.8803632259369L693.114,296.5075252056122L693.5793333333332,295.4246051311493L694.2773333333333,294.77029597759247L694.9753333333333,294.6202349662781L696.3713333333333,295.83690214157104L696.604,295.9051239490509L697.5346666666667,296.7598739862442L698.2326666666667,296.20906603336334L698.9306666666666,296.792277097702L699.3960000000001,296.64401376247406L700.5593333333334,296.6288683414459L701.3736666666666,317.4955732822418L702.0716666666667,294.8579776287079L702.3043333333334,295.2234901189804L702.537,297.27266108989716L702.7696666666667,297.7299449443817L703.4676666666667,305.15016758441925L704.3983333333333,303.6891063451767L705.7943333333334,304.54803597927094L706.027,304.58102333545685L706.725,303.94037652015686L708.5863333333334,303.8322013616562L709.7496666666666,302.1713284254074L710.4476666666667,301.9787074327469L711.1456666666666,302.07861328125L711.3783333333333,301.6572380065918L711.8436666666666,301.594903588295L712.5416666666667,301.55908489227295L712.7743333333334,301.5752639770508L713.2396666666666,301.3258364200592L714.5193333333333,293.5925934314728L715.2173333333334,299.12035751342773L715.9153333333334,300.5007929801941L716.148,300.2377030849457L717.0786666666667,303.533921957016L718.4746666666666,303.03551626205444L721.4993333333333,304.3912786245346L722.43,304.35128033161163L722.8953333333333,304.6049773693085L724.0586666666667,304.32166361808777L725.222,304.4743312597275L726.1526666666667,303.6798483133316L727.1996666666668,297.01469457149506L728.1303333333333,303.38359129428864L729.061,304.78200352191925L729.7589999999999,305.69760489463806L733.249,306.046443939209L735.5756666666667,305.19025576114655L735.8083333333333,305.21034479141235L736.0409999999999,304.604842543602L736.739,304.5011166334152L738.135,304.2786991596222L739.4146666666667,297.4243849515915L739.6473333333333,299.19455659389496L739.88,300.70685160160065L740.1126666666667,302.3654774427414L740.3453333333333,304.8637079000473L740.5780000000001,305.3053070306778L740.8106666666667,303.6391758918762L742.672,304.9762873649597L748.0233333333333,305.5543301105499L748.256,305.55680191516876L748.4886666666666,305.52520775794983L750.1173333333334,305.20576071739197L752.5603333333333,306.2773554325104L753.0256666666667,305.5383757352829L753.9563333333334,310.0508123636246L755.8176666666667,309.1328740119934L756.0503333333334,310.01782500743866L756.7483333333333,309.48899364471436L757.2136666666667,309.4956899881363L757.4463333333333,309.51070058345795L757.9116666666667,310.0895073413849L762.3323333333334,309.14037930965424L763.4956666666667,308.82632529735565L764.0773333333333,314.3371013402939L764.7753333333334,315.11216938495636L766.8693333333333,307.53981840610504L767.102,308.5179339647293L768.4979999999999,309.6126288175583L768.9633333333334,309.4052668809891L769.196,309.1728723049164L770.592,309.94155859947205L771.2900000000001,309.9383227825165L771.5226666666667,309.9820512533188L772.686,309.3849980831146L773.1513333333334,309.46602833271027L773.6166666666667,309.38315546512604L774.3146666666667,309.40346920490265L774.5473333333333,309.48418486118317L776.2923333333333,305.22598457336426L777.4556666666666,309.37227952480316L777.921,308.1081087589264L778.1536666666667,307.99283277988434L778.3863333333334,305.9055061340332L779.317,305.4648507833481L780.9456666666667,306.29906237125397L783.2723333333333,306.77346909046173L785.1336666666667,306.53365910053253L788.9726666666667,324.9017291069031L790.1360000000001,310.4181674718857L790.6013333333333,310.90205693244934L790.834,310.9491560459137L791.532,312.4300366640091L793.8586666666666,310.7447153329849L795.2546666666666,311.1600683927536L796.1853333333333,311.65231704711914L797.3486666666666,311.165776014328L797.814,310.47528862953186L798.2793333333334,310.19700837135315L798.7446666666666,310.2655897140503L799.2099999999999,310.7984209060669L800.1406666666667,310.619686961174L800.3733333333333,310.70507657527924L800.955,280.91003358364105L801.1876666666667,308.57680785655975L801.4203333333334,306.7424142360687L802.351,312.3255467414856L802.8163333333333,313.35166025161743L803.5143333333334,313.0002145767212L803.7470000000001,313.520237326622L804.2123333333333,313.28824722766876L805.3756666666667,312.4865735769272L805.841,312.7303833961487L806.0736666666667,312.4976292848587L806.3063333333333,312.1069493293762L807.7023333333334,311.5823874473572L808.1676666666666,311.89450895786285L808.8656666666667,312.35403990745544L810.9596666666666,311.96255099773407L811.6576666666667,312.6167253255844L812.1229999999999,312.9094319343567L812.5883333333333,312.6336234807968L813.0536666666667,312.24703323841095L813.4026666666666,287.4138458967209L815.4966666666667,315.5727789402008L816.4273333333333,314.6413130760193L816.8926666666667,314.5243742465973L817.5906666666666,313.9104229211807L819.452,314.96363639831543L820.3826666666666,314.373504281044L821.3133333333334,313.72620606422424L822.7093333333333,314.30937218666077L824.338,314.1419186592102L824.8033333333334,313.78170931339264L825.8503333333333,314.31040585041046L827.479,314.8025196790695L828.177,313.27615785598755L828.4096666666667,312.81172823905945L829.573,312.18946266174316L829.8056666666666,312.5241450071335L830.0383333333334,312.8585127592087L830.5036666666667,313.0640320777893L831.2016666666666,313.9710944890976L832.365,314.7798240184784L833.063,314.05576503276825L833.2956666666666,314.19508492946625L833.761,314.3083385229111L835.1569999999999,313.8377069234848L837.4836666666666,313.54953944683075L838.996,308.3120551109314L839.6940000000001,311.4334499835968L839.9266666666666,311.85558927059174L841.5553333333334,309.461758852005L841.788,310.53924095630646L842.0206666666666,311.5649050474167L842.2533333333333,311.59587001800537L843.4166666666667,313.141152381897L844.1146666666666,312.11993753910065L849.6986666666667,313.3620867729187L850.3966666666666,314.02048563957214L850.7456666666667,381.62402737140656L851.909,321.90518283843994L852.607,320.06562089920044L852.8396666666667,318.9039626121521L853.305,316.2082574367523L853.5376666666666,315.4916138648987L855.1663333333333,317.00700986385345L855.6316666666667,318.30506682395935L856.097,318.14174795150757L858.191,317.38465666770935L859.3543333333334,316.93402421474457L859.587,317.3068622350693L860.9830000000001,317.35944426059723L861.4483333333334,317.4372386932373L861.9136666666666,317.4752595424652L862.379,317.42667734622955L863.1933333333333,346.393980383873L863.8913333333334,320.47054743766785L864.822,318.3419191837311L866.9159999999999,319.73453390598297L867.1486666666666,319.6863112449646L867.3813333333333,319.347629070282L868.7773333333333,318.38420951366425L870.6386666666667,319.0248113870621L871.5693333333334,318.2002623081207L872.0346666666667,318.7057238817215L872.2673333333333,318.9180294275284L872.5,318.72540843486786L873.4306666666666,319.15010941028595L874.594,319.5784956216812L876.1063333333333,307.76821315288544L877.037,316.55161356925964L877.9676666666667,315.9249886274338L878.2003333333333,316.18277537822723L878.8983333333333,318.0916826725006L879.8290000000001,317.88620829582214L880.2943333333333,318.1297484636307L881.6903333333333,317.3589049577713L882.3883333333333,316.96534872055054L882.8536666666666,317.3592195510864L883.319,317.4761583805084L883.7843333333334,317.4354410171509L884.4823333333333,317.53404355049133L884.9476666666667,317.86099588871L885.6456666666667,317.6041978597641L886.5763333333333,317.1465095281601L887.0416666666666,317.2615158557892L888.3213333333333,327.00285291671753L889.4846666666666,318.2423279285431L889.7173333333333,320.0791484117508L890.648,319.7736783027649L892.2766666666666,320.1338427066803L894.138,321.1649897098541L894.836,320.6950771808624L895.534,320.96351516246796L895.7666666666667,321.1508779525757L896.4646666666666,320.7750288248062L897.6279999999999,321.6246554851532L899.024,322.04117703437805L899.2566666666667,322.0260765552521L900.1873333333333,321.577601313591L900.5363333333333,305.4758166074753L901.9323333333333,317.06911957263947L902.1650000000001,315.8462953567505L902.6303333333334,313.6912862062454L903.561,315.3280702829361L905.1896666666667,318.804056763649L906.5856666666667,319.1711871623993L907.2836666666666,319.8127328157425L908.6796666666667,321.529198884964L910.541,321.98558390140533L911.2389999999999,321.81255757808685L911.7043333333334,321.88244223594666L911.937,321.8482414484024L912.984,260.5200273990631L913.2166666666667,312.4960563182831L913.9146666666667,319.8648204803467L914.38,320.973042845726L914.6126666666667,318.4497797489166L915.078,317.39058899879456L916.2413333333333,319.4404790401459L918.568,322.48610186576843L919.964,321.500660777092L920.4293333333333,321.7446503639221L920.6619999999999,321.5838931798935L921.5926666666667,321.9234741926193L921.8253333333333,321.9967294931412L922.756,322.08140003681183L923.2213333333333,321.43859601020813L924.6173333333332,322.2349215745926L924.85,322.32440090179443L925.4316666666666,326.61329650878906L926.3623333333334,316.93222653865814L929.1543333333334,324.2123203277588L930.3176666666667,322.7179571390152L930.5503333333334,322.77166271209717L931.0156666666667,322.98374354839325L931.9463333333333,322.01560509204865L933.1096666666667,322.3501076698303L933.3423333333334,321.87992548942566L934.7383333333333,321.7688740491867L934.971,321.87934124469757L935.4363333333333,321.3471841812134L938.112,319.6594809293747L939.0426666666666,327.15206003189087L939.508,327.35695016384125L939.9733333333334,326.9980890750885L940.6713333333333,325.0663962364197L941.3693333333333,324.03066515922546L943.4633333333333,323.1517813205719L944.8593333333334,323.5223722457886L945.3246666666666,323.21348655223846L947.884,322.97884488105774L948.1166666666667,323.36480593681335L949.5126666666666,323.5430005788803L951.025,319.0439566373825L956.6089999999999,324.74609529972076L956.8416666666666,324.9404240846634L957.307,325.46026706695557L958.005,325.29047656059265L958.4703333333333,325.446964263916L963.24,336.9228789806366L963.938,331.31084883213043L964.8686666666667,327.27151560783386L965.1013333333334,326.8082095384598L965.3340000000001,326.7941427230835L965.7993333333333,326.8872174024582L966.73,328.0281125307083L967.428,327.59536695480347L967.8933333333333,328.24262022972107L968.3586666666666,327.40310549736023L969.9873333333333,327.3507032394409L970.6853333333333,327.7170696258545L970.918,327.4099816083908L971.6160000000001,327.54148161411285L972.7793333333333,327.6860147714615L974.6406666666667,327.97827196121216L975.4549999999999,318.3719403743744L975.9203333333334,320.266646027565L976.3856666666667,325.54134225845337L976.6183333333333,326.8389048576355L978.0143333333333,323.12113094329834L978.945,324.61967372894287L979.4103333333333,324.81759786605835L979.8756666666667,324.48084819316864L980.5736666666667,323.92365849018097L982.6676666666667,326.22881853580475L983.1329999999999,325.8947204351425L983.3656666666666,325.8354420661926L984.2963333333333,325.88496804237366L985.4596666666666,326.69693338871L985.925,327.1645988225937L988.1353333333334,321.51346921920776L988.6006666666666,326.3240953683853L989.066,329.65730142593384L992.0906666666667,328.05125761032104L993.0213333333334,328.3218528032303L993.4866666666667,327.8918936252594L995.8133333333334,327.9100501537323L996.046,327.7623710632324" style="fill: none;" fill="none"></path></g></g></g></g></g></g><g transform="translate(40, 377)" clip-path="url(#clip_1)"><clipPath id="clip_1"><rect width="1047" height="23"></rect></clipPath><g><g><line x1="0" y1="0" x2="0" y2="5" style="visibility: inherit;" fill="rgb(0, 0, 0)" stroke="rgb(204, 204, 204)" stroke-width="1px"></line><line x1="116.33333333333333" y1="0" x2="116.33333333333333" y2="5" style="visibility: inherit;" fill="rgb(0, 0, 0)" stroke="rgb(204, 204, 204)" stroke-width="1px"></line><line x1="232.66666666666666" y1="0" x2="232.66666666666666" y2="5" style="visibility: inherit;" fill="rgb(0, 0, 0)" stroke="rgb(204, 204, 204)" stroke-width="1px"></line><line x1="349" y1="0" x2="349" y2="5" style="visibility: inherit;" fill="rgb(0, 0, 0)" stroke="rgb(204, 204, 204)" stroke-width="1px"></line><line x1="465.3333333333333" y1="0" x2="465.3333333333333" y2="5" style="visibility: inherit;" fill="rgb(0, 0, 0)" stroke="rgb(204, 204, 204)" stroke-width="1px"></line><line x1="581.6666666666667" y1="0" x2="581.6666666666667" y2="5" style="visibility: inherit;" fill="rgb(0, 0, 0)" stroke="rgb(204, 204, 204)" stroke-width="1px"></line><line x1="698" y1="0" x2="698" y2="5" style="visibility: inherit;" fill="rgb(0, 0, 0)" stroke="rgb(204, 204, 204)" stroke-width="1px"></line><line x1="814.3333333333334" y1="0" x2="814.3333333333334" y2="5" style="visibility: inherit;" fill="rgb(0, 0, 0)" stroke="rgb(204, 204, 204)" stroke-width="1px"></line><line x1="930.6666666666666" y1="0" x2="930.6666666666666" y2="5" style="visibility: inherit;" fill="rgb(0, 0, 0)" stroke="rgb(204, 204, 204)" stroke-width="1px"></line><line x1="1047" y1="0" x2="1047" y2="5" style="visibility: inherit;" fill="rgb(0, 0, 0)" stroke="rgb(204, 204, 204)" stroke-width="1px"></line></g><g transform="translate(0, 8)"><text x="0" y="0" dx="0em" dy="0.95em" style="text-anchor: middle; visibility: hidden; font-family: Roboto, sans-serif; font-size: 12px; font-weight: 200;" fill="rgb(33, 33, 33)" stroke="none" stroke-width="1px">-5k</text><text x="116.33333333333333" y="0" dx="0em" dy="0.95em" style="text-anchor: middle; visibility: inherit; font-family: Roboto, sans-serif; font-size: 12px; font-weight: 200;" fill="rgb(33, 33, 33)" stroke="none" stroke-width="1px">0</text><text x="232.66666666666666" y="0" dx="0em" dy="0.95em" style="text-anchor: middle; visibility: inherit; font-family: Roboto, sans-serif; font-size: 12px; font-weight: 200;" fill="rgb(33, 33, 33)" stroke="none" stroke-width="1px">5k</text><text x="349" y="0" dx="0em" dy="0.95em" style="text-anchor: middle; visibility: inherit; font-family: Roboto, sans-serif; font-size: 12px; font-weight: 200;" fill="rgb(33, 33, 33)" stroke="none" stroke-width="1px">10k</text><text x="465.3333333333333" y="0" dx="0em" dy="0.95em" style="text-anchor: middle; visibility: inherit; font-family: Roboto, sans-serif; font-size: 12px; font-weight: 200;" fill="rgb(33, 33, 33)" stroke="none" stroke-width="1px">15k</text><text x="581.6666666666667" y="0" dx="0em" dy="0.95em" style="text-anchor: middle; visibility: inherit; font-family: Roboto, sans-serif; font-size: 12px; font-weight: 200;" fill="rgb(33, 33, 33)" stroke="none" stroke-width="1px">20k</text><text x="698" y="0" dx="0em" dy="0.95em" style="text-anchor: middle; visibility: inherit; font-family: Roboto, sans-serif; font-size: 12px; font-weight: 200;" fill="rgb(33, 33, 33)" stroke="none" stroke-width="1px">25k</text><text x="814.3333333333334" y="0" dx="0em" dy="0.95em" style="text-anchor: middle; visibility: inherit; font-family: Roboto, sans-serif; font-size: 12px; font-weight: 200;" fill="rgb(33, 33, 33)" stroke="none" stroke-width="1px">30k</text><text x="930.6666666666666" y="0" dx="0em" dy="0.95em" style="text-anchor: middle; visibility: inherit; font-family: Roboto, sans-serif; font-size: 12px; font-weight: 200;" fill="rgb(33, 33, 33)" stroke="none" stroke-width="1px">35k</text><text x="1047" y="0" dx="0em" dy="0.95em" style="text-anchor: middle; visibility: hidden; font-family: Roboto, sans-serif; font-size: 12px; font-weight: 200;" fill="rgb(33, 33, 33)" stroke="none" stroke-width="1px">40k</text></g><line x1="0" y1="0" x2="1047" y2="0" fill="rgb(0, 0, 0)" stroke="rgb(204, 204, 204)" stroke-width="1px"></line></g></g></g></g></svg>